<svg width="41" height="41" viewBox="0 0 41 41" fill="none" xmlns="http://www.w3.org/2000/svg">
<path fill-rule="evenodd" clip-rule="evenodd" d="M3.0128 0.18596C2.6175 0.0453627 2.18327 0.0696514 1.80565 0.253484C1.42802 0.437316 1.13792 0.765633 0.999178 1.16621C0.860432 1.56678 0.884401 2.00681 1.06581 2.38947C1.24722 2.77214 1.57122 3.06611 1.96651 3.2067L2.51597 3.40083C3.92224 3.90216 4.84642 4.23282 5.5264 4.57201C6.16427 4.88987 6.44426 5.148 6.62952 5.42106C6.81899 5.70266 6.96635 6.09092 7.05056 6.8653C7.13477 7.67596 7.13898 8.73194 7.13898 10.3106V15.8614C7.13898 22.1376 7.27161 24.2069 9.09681 26.1567C10.9199 28.1065 13.8545 28.1065 19.728 28.1065H30.8898C34.176 28.1065 35.8202 28.1065 36.9801 27.1465C38.1422 26.1866 38.4748 24.5567 39.1379 21.297L40.1905 16.1238C40.921 12.4119 41.2852 10.558 40.3505 9.32713C39.4158 8.09622 36.2244 8.09622 32.6771 8.09622H10.2799C10.271 7.57039 10.2408 7.04516 10.1894 6.52184C10.0757 5.4616 9.83152 4.49521 9.23786 3.6163C8.63998 2.72885 7.84422 2.16139 6.91583 1.69847C6.04849 1.26754 4.94537 0.875014 3.64857 0.412089L3.0128 0.18596ZM19.707 14.4321C20.003 14.1325 20.4043 13.9642 20.8227 13.9642C21.2412 13.9642 21.6425 14.1325 21.9385 14.4321L23.9805 16.5014L26.0226 14.4321C26.1671 14.2749 26.3414 14.1488 26.5351 14.0614C26.7288 13.9739 26.9379 13.9269 27.1499 13.9231C27.3619 13.9193 27.5724 13.9588 27.769 14.0393C27.9656 14.1198 28.1442 14.2396 28.2942 14.3915C28.4441 14.5434 28.5623 14.7244 28.6417 14.9236C28.7211 15.1228 28.7601 15.3362 28.7564 15.5511C28.7526 15.7659 28.7062 15.9778 28.6199 16.174C28.5336 16.3703 28.4092 16.5469 28.2541 16.6934L26.212 18.7627L28.2541 20.832C28.4092 20.9785 28.5336 21.1551 28.6199 21.3514C28.7062 21.5476 28.7526 21.7595 28.7564 21.9743C28.7601 22.1891 28.7211 22.4025 28.6417 22.6018C28.5623 22.801 28.4441 22.982 28.2942 23.1339C28.1442 23.2858 27.9656 23.4056 27.769 23.4861C27.5724 23.5665 27.3619 23.6061 27.1499 23.6023C26.9379 23.5985 26.7288 23.5514 26.5351 23.464C26.3414 23.3766 26.1671 23.2505 26.0226 23.0933L23.9805 21.024L21.9385 23.0933C21.794 23.2505 21.6196 23.3766 21.426 23.464C21.2323 23.5514 21.0232 23.5985 20.8112 23.6023C20.5992 23.6061 20.3886 23.5665 20.192 23.4861C19.9954 23.4056 19.8168 23.2858 19.6669 23.1339C19.517 22.982 19.3988 22.801 19.3194 22.6018C19.24 22.4025 19.201 22.1891 19.2047 21.9743C19.2085 21.7595 19.2549 21.5476 19.3411 21.3514C19.4274 21.1551 19.5519 20.9785 19.707 20.832L21.749 18.7627L19.707 16.6934C19.4113 16.3934 19.2452 15.9867 19.2452 15.5627C19.2452 15.1388 19.4113 14.7321 19.707 14.4321Z" fill="#5E60CE"/>
<path d="M12.4019 33.6957C13.2394 33.6957 14.0426 34.0329 14.6348 34.633C15.227 35.2331 15.5597 36.047 15.5597 36.8957C15.5597 37.7444 15.227 38.5583 14.6348 39.1584C14.0426 39.7585 13.2394 40.0956 12.4019 40.0956C11.5644 40.0956 10.7612 39.7585 10.169 39.1584C9.57684 38.5583 9.24414 37.7444 9.24414 36.8957C9.24414 36.047 9.57684 35.2331 10.169 34.633C10.7612 34.0329 11.5644 33.6957 12.4019 33.6957ZM31.3487 33.6957C32.1862 33.6957 32.9894 34.0329 33.5816 34.633C34.1738 35.2331 34.5065 36.047 34.5065 36.8957C34.5065 37.7444 34.1738 38.5583 33.5816 39.1584C32.9894 39.7585 32.1862 40.0956 31.3487 40.0956C30.5112 40.0956 29.708 39.7585 29.1158 39.1584C28.5236 38.5583 28.1909 37.7444 28.1909 36.8957C28.1909 36.047 28.5236 35.2331 29.1158 34.633C29.708 34.0329 30.5112 33.6957 31.3487 33.6957Z" fill="#5E60CE"/>
</svg>
