<svg width="32" height="32" viewBox="0 0 32 32" fill="none" xmlns="http://www.w3.org/2000/svg">
<path d="M15.75 4C9.26127 4 4 9.26127 4 15.75C4 22.2387 9.26127 27.5 15.75 27.5C22.2387 27.5 27.5 22.2387 27.5 15.75C27.5 9.26127 22.2387 4 15.75 4ZM21.3968 12.8571C21.4047 12.9804 21.4047 13.1089 21.4047 13.2348C21.4047 17.085 18.4724 21.5201 13.1141 21.5201C11.4618 21.5201 9.93008 21.0401 8.63968 20.214C8.87573 20.2402 9.10128 20.2507 9.34258 20.2507C10.7064 20.2507 11.9601 19.7891 12.9594 19.0075C11.6795 18.9813 10.6041 18.142 10.2369 16.9879C10.6854 17.0535 11.0893 17.0535 11.5509 16.9355C10.8919 16.8016 10.2996 16.4437 9.87452 15.9225C9.44948 15.4014 9.21796 14.7492 9.21931 14.0767V14.04C9.60486 14.2576 10.0586 14.3914 10.5333 14.4098C10.1342 14.1438 9.80696 13.7835 9.58049 13.3607C9.35402 12.938 9.23537 12.4659 9.23504 11.9863C9.23504 11.4434 9.37667 10.9477 9.63108 10.5176C10.3626 11.4181 11.2754 12.1546 12.3101 12.6792C13.3449 13.2038 14.4785 13.5048 15.6372 13.5626C15.2254 11.5824 16.7047 9.97991 18.4829 9.97991C19.3222 9.97991 20.0776 10.3314 20.61 10.8979C21.2683 10.7746 21.8978 10.5281 22.459 10.1976C22.2414 10.8717 21.785 11.4408 21.1791 11.8001C21.7666 11.7372 22.3331 11.5746 22.8577 11.3464C22.4617 11.9286 21.966 12.4453 21.3968 12.8571Z" fill="#1DA1F2"/>
<circle cx="16" cy="16" r="15.75" stroke="#182315" stroke-opacity="0.2" stroke-width="0.5"/>
</svg>
